<?xml version="1.0" encoding="UTF-8" standalone="no"?>
<svg width="91px" height="64px" viewBox="0 0 91 64" version="1.1" xmlns="http://www.w3.org/2000/svg" xmlns:xlink="http://www.w3.org/1999/xlink" xmlns:sketch="http://www.bohemiancoding.com/sketch/ns">
    <!-- Generator: Sketch Beta 3.5 (25229) - http://www.bohemiancoding.com/sketch -->
    <title>Planet</title>
    <desc>Created with Sketch Beta.</desc>
    <defs>
        <linearGradient x1="32.970222%" y1="7.71131604%" x2="56.0874753%" y2="71.8107507%" id="linearGradient-1">
            <stop stop-color="#FF4F84" offset="0%"></stop>
            <stop stop-color="#FC1B5F" offset="100%"></stop>
        </linearGradient>
        <path d="M72.1970036,49.2491371 C66.5342776,58.0298071 56.6861993,63.8453604 45.4951423,63.8453604 C38.5098399,63.8453604 32.0475445,61.5796954 26.7999858,57.7413198 C28.1283915,57.8160406 29.4587402,57.8553503 30.789089,57.8634721 C33.6936406,57.881665 36.5988399,57.7523655 39.4927046,57.5018883 C42.631395,57.2302944 45.7574555,56.8151066 48.8601993,56.2706193 C51.8949359,55.7381523 54.9086228,55.0822335 57.8879822,54.295066 C60.7199929,53.5465584 63.52221,52.679797 66.274879,51.6756142 C68.1641815,50.9865584 70.0304911,50.2325279 71.8627972,49.4018274 C71.9741993,49.3514721 72.0856014,49.300467 72.1970036,49.2491371 L72.1970036,49.2491371 Z M16.9998363,46.0868223 C14.8967972,41.8290355 13.7147687,37.0339086 13.7147687,31.9639391 C13.7147687,14.3681624 27.9551352,0.0825177665 45.4951423,0.0825177665 C63.0351495,0.0825177665 77.2751922,14.3681624 77.2751922,31.9639391 C77.2751922,33.0980711 77.2162527,34.2185584 77.1006406,35.3221523 C77.2062135,35.2464569 77.3114626,35.1697868 77.4163879,35.0927919 C78.2308541,34.4930761 79.0181174,33.8547005 79.759395,33.1656447 C80.3086335,32.6549442 80.8326121,32.1163046 81.3161103,31.5429036 C81.7251246,31.0575431 82.1056406,30.5468426 82.4404947,30.0072284 C82.8919324,29.2801624 83.2630569,28.4959188 83.4806797,27.6655431 C83.6215516,27.1285279 83.6963594,26.5736447 83.6876157,26.0181117 C83.6814626,25.6298883 83.6345053,25.2423147 83.5470676,24.8641624 C83.4878043,24.6071878 83.409758,24.3544365 83.3142242,24.1085076 C83.2465409,23.9330761 83.16979,23.7612183 83.0852669,23.5932589 C83.0211459,23.4655838 82.9524911,23.3401827 82.8793025,23.2170558 C82.3679537,22.3554924 81.660032,21.6251777 80.8773025,21.0082437 C80.7425836,20.902335 80.6055979,20.7996751 80.466669,20.6996142 C80.2746299,20.5621929 80.0787046,20.4299695 79.8795409,20.3029442 C79.6369822,20.1486294 79.3895658,20.0017868 79.1385872,19.8617665 C78.7988754,19.6720406 78.4520391,19.4949848 78.1000214,19.3286497 C77.9698363,19.2669239 77.8386797,19.2068223 77.7068754,19.1480203 C76.4380569,15.9447716 74.7077616,12.9744569 72.5985694,10.3208934 C73.0496833,10.4092589 73.4995018,10.5041218 73.9480249,10.6058071 C74.8285552,10.8056041 75.7032562,11.0313909 76.5692135,11.2880406 C77.2003843,11.4748426 77.8266975,11.6782132 78.4465338,11.9004264 C78.9106014,12.0667614 79.3707829,12.2434924 79.8264306,12.4319188 C80.1645231,12.5716142 80.5000249,12.7178071 80.8326121,12.8708223 C81.0806762,12.9851777 81.3267972,13.1031066 81.5712989,13.224934 C83.2899359,14.0832487 84.9185445,15.1442843 86.3220819,16.4639188 C86.5520107,16.6799594 86.7754626,16.9028223 86.9921139,17.1325076 C87.256694,17.4128731 87.5105872,17.7033096 87.7528221,18.0034924 C88.0834662,18.4138071 88.3917651,18.8419898 88.6741566,19.287066 C89.0572633,19.8906802 89.3924413,20.5251574 89.6725658,21.1833503 C90.0579395,22.0890964 90.3374164,23.0396751 90.5019288,24.0107208 C90.6136548,24.6711878 90.6722705,25.3410761 90.677452,26.0109645 C90.6826335,26.7006701 90.6311423,27.3903756 90.5265409,28.0716345 C90.3710961,29.0832893 90.0974484,30.0754518 89.7256762,31.0286294 C89.4060427,31.848934 89.0141922,32.6403249 88.565669,33.3972792 C87.9753025,34.393665 87.2877829,35.330599 86.534847,36.2093807 C85.6614413,37.2285076 84.7005979,38.1703147 83.6856726,39.0468223 C82.6571459,39.9353503 81.5722705,40.7579289 80.4524199,41.5265787 C79.186516,42.3952893 77.8746263,43.1961015 76.5335907,43.942335 C75.010879,44.7892792 73.449306,45.5663756 71.8627972,46.2856447 C70.0304911,47.1163452 68.1641815,47.8703756 66.274879,48.5594315 C63.52221,49.5636142 60.7199929,50.4303756 57.8879822,51.1788832 C54.9086228,51.9660508 51.8949359,52.6219695 48.8601993,53.1544365 C45.7574555,53.6989239 42.631395,54.1141117 39.4927046,54.3857056 C36.5988399,54.6361827 33.6936406,54.7651574 30.789089,54.7472893 C28.7258826,54.7346193 26.6623523,54.6472284 24.6069181,54.4682234 C23.0987794,54.3366497 21.5945267,54.1556954 20.0999893,53.9130152 C18.9781957,53.7310863 17.8615836,53.5143959 16.7546868,53.255797 C15.9094555,53.0582741 15.0700534,52.8363858 14.2390712,52.5855838 C13.6101673,52.3958579 12.9857972,52.1892386 12.3685516,51.9641015 C11.9061032,51.7954924 11.4475409,51.6161624 10.9938363,51.4251371 C10.6570391,51.2834924 10.3231566,51.1353503 9.99218861,50.9800609 C9.74509609,50.8644061 9.49962278,50.7445279 9.25641637,50.6210761 C7.5701637,49.7634112 5.97426335,48.7069239 4.59987189,47.3996345 C4.39390747,47.203736 4.19312456,47.0023147 3.99817082,46.7956954 C3.73359075,46.5150051 3.47937367,46.2245685 3.23713879,45.9243858 C2.90649466,45.5140711 2.59787189,45.0855635 2.31548043,44.6401624 C1.95083274,44.0657868 1.62990391,43.463797 1.35852313,42.8397157 C0.966024911,41.937868 0.678775801,40.9902132 0.50616726,40.0214416 C0.382782918,39.3268629 0.318014235,38.6222132 0.31283274,37.9169137 C0.307651246,37.2613198 0.353960854,36.605401 0.448523132,35.9569543 C0.596519573,34.9420508 0.863366548,33.9463147 1.22963345,32.9889137 C1.54440925,32.1656853 1.93237367,31.3707208 2.37733452,30.6105178 C2.96284342,29.6102335 3.64647687,28.6697259 4.39617438,27.7876954 C5.26504626,26.7656447 6.22265125,25.8209137 7.23433808,24.9414822 C8.23501423,24.0721218 9.28912456,23.2661117 10.3778861,22.5117563 C11.0990854,22.0117766 11.8358292,21.5342132 12.5845552,21.076467 C11.5417794,24.2469036 10.9416975,27.6184365 10.8581459,31.1173198 C10.4290534,31.5357563 10.0184199,31.9730355 9.63369395,32.4330558 C9.22791815,32.9184162 8.85096441,33.4287919 8.5196726,33.9684061 C8.07341637,34.6961218 7.708121,35.4803655 7.49697509,36.3097665 C7.36031317,36.8471066 7.29003915,37.401665 7.30331673,37.9565482 C7.31238434,38.3291777 7.35901779,38.7005076 7.44289324,39.0637157 C7.50248043,39.3206904 7.58052669,39.5734416 7.67573665,39.8193706 C7.74341993,39.994802 7.82017082,40.1666599 7.90469395,40.3346193 C7.96881495,40.4622944 8.03779359,40.5876954 8.11065836,40.7108223 C8.61229181,41.5561421 9.30337367,42.2754112 10.0689395,42.8848731 C10.202363,42.9911066 10.3383772,43.0940914 10.4766584,43.1941523 C10.6670783,43.3325482 10.862032,43.4650964 11.0599004,43.5924467 C11.3008399,43.7474112 11.5469609,43.8949036 11.7966441,44.0352487 C12.115306,44.2149036 12.440121,44.3831878 12.7697936,44.5417259 C13.2018007,44.7499695 13.6419039,44.9413198 14.0871886,45.1190254 C14.6785267,45.3548832 15.2792562,45.5663756 15.8861388,45.7580508 C16.2553203,45.8746802 16.6264448,45.9841624 16.9998363,46.0868223 L16.9998363,46.0868223 Z M47.0074911,29.1508629 C47.0074911,29.1508629 52.42021,29.8792284 56.7687794,29.3210964 C61.1173488,28.7629645 66.3684698,27.0067005 66.3684698,27.0067005 C66.3684698,27.0067005 64.0717722,32.675736 57.2684698,33.4554315 C50.4648434,34.2351269 47.0074911,29.1508629 47.0074911,29.1508629 L47.0074911,29.1508629 Z M46.945637,21.2392284 C48.2516975,21.2392284 49.3122847,22.3031878 49.3122847,23.6137259 C49.3122847,24.9239391 48.2516975,25.9878985 46.945637,25.9878985 C45.6392527,25.9878985 44.5789893,24.9239391 44.5789893,23.6137259 C44.5789893,22.3031878 45.6392527,21.2392284 46.945637,21.2392284 L46.945637,21.2392284 Z M64.4471068,19.9644264 C65.7534911,19.9644264 66.8137544,21.0283858 66.8137544,22.338599 C66.8137544,23.6491371 65.7534911,24.7127716 64.4471068,24.7127716 C63.1410463,24.7127716 62.0804591,23.6491371 62.0804591,22.338599 C62.0804591,21.0283858 63.1410463,19.9644264 64.4471068,19.9644264 L64.4471068,19.9644264 Z" id="path-2"></path>
    </defs>
    <g id="Page-1" stroke="none" stroke-width="1" fill="none" fill-rule="evenodd" sketch:type="MSPage">
        <g id="Artboard-11" sketch:type="MSArtboardGroup" transform="translate(-56.000000, -67.000000)">
            <g id="Planet" sketch:type="MSLayerGroup" transform="translate(56.000000, 67.000000)">
                <mask id="mask-3" sketch:name="planet" fill="white">
                    <use xlink:href="#path-2"></use>
                </mask>
                <use id="planet" fill="url(#linearGradient-1)" sketch:type="MSShapeGroup" xlink:href="#path-2"></use>
                <path d="M60.301911,57.0220508 C64.5698434,57.0220508 68.0346441,60.497868 68.0346441,64.7793706 C68.0346441,69.0605482 64.5698434,72.5366904 60.301911,72.5366904 C56.0343025,72.5366904 52.5695018,69.0605482 52.5695018,64.7793706 C52.5695018,60.497868 56.0343025,57.0220508 60.301911,57.0220508 L60.301911,57.0220508 Z M27.7766975,27.2961624 C29.932847,27.2961624 31.6832206,29.0521015 31.6832206,31.2151066 C31.6832206,33.3777868 29.932847,35.1337259 27.7766975,35.1337259 C25.6208719,35.1337259 23.8704982,33.3777868 23.8704982,31.2151066 C23.8704982,29.0521015 25.6208719,27.2961624 27.7766975,27.2961624 L27.7766975,27.2961624 Z M25.0039502,7.39768528 C28.8913665,7.39768528 32.0475445,10.5638985 32.0475445,14.4636751 C32.0475445,18.3634518 28.8913665,21.529665 25.0039502,21.529665 C21.1165338,21.529665 17.9603559,18.3634518 17.9603559,14.4636751 C17.9603559,10.5638985 21.1165338,7.39768528 25.0039502,7.39768528 L25.0039502,7.39768528 Z M38.7462456,11.0525076 C40.0536014,11.0525076 41.1151601,12.1174416 41.1151601,13.4289543 C41.1151601,14.7407919 40.0536014,15.8057259 38.7462456,15.8057259 C37.4385658,15.8057259 36.377331,14.7407919 36.377331,13.4289543 C36.377331,12.1174416 37.4385658,11.0525076 38.7462456,11.0525076 L38.7462456,11.0525076 Z M61.6183345,2.19971574 C63.774484,2.19971574 65.5248577,3.95565482 65.5248577,6.1186599 C65.5248577,8.2813401 63.774484,10.0372792 61.6183345,10.0372792 C59.4625089,10.0372792 57.7121352,8.2813401 57.7121352,6.1186599 C57.7121352,3.95565482 59.4625089,2.19971574 61.6183345,2.19971574 L61.6183345,2.19971574 Z" id="dots" fill-opacity="0.507840806" fill="#BA013B" sketch:type="MSShapeGroup" mask="url(#mask-3)"></path>
            </g>
        </g>
    </g>
</svg>